<svg width="314" height="156" viewBox="0 0 314 156" fill="none" xmlns="http://www.w3.org/2000/svg">
<g clip-path="url(#clip0)">
<path d="M204.043 115.581C204.643 116.635 204.793 117.839 204.193 119.043C203.594 120.247 202.394 120.699 201.044 120.699H156.35H111.656C110.307 120.699 109.257 120.097 108.507 119.043C107.907 117.839 108.057 116.785 108.657 115.581L131.004 75.844L153.501 36.107C154.1 35.0534 155.3 34.3008 156.5 34.3008C157.85 34.3008 158.75 35.0534 159.35 36.107L181.697 75.6935L204.043 115.581Z" fill="white" stroke="white" stroke-width="0.244391"/>
<path d="M167.149 70.8771H167.299C167.599 71.0276 167.899 71.1781 168.199 71.4792C168.499 71.6297 168.649 71.9307 168.649 72.3823C167.299 78.403 165.799 84.4238 164.15 90.5951C162.5 96.6158 160.7 102.637 158.9 108.356C158.45 108.958 158 109.41 157.551 109.56C157.101 109.711 156.801 109.711 156.651 109.711C156.201 109.56 155.901 109.41 155.601 109.109C155.001 108.657 154.551 108.055 154.251 107.754C154.251 107.604 154.101 107.303 153.951 107.152C153.801 107.002 153.801 106.851 153.801 106.55C152.451 100.83 150.801 95.1106 149.002 89.3909C147.202 83.6712 145.852 77.9515 144.652 72.2318C144.802 71.6297 145.102 71.1781 145.552 71.0276C145.852 70.8771 146.002 70.8771 146.152 70.8771C146.302 70.8771 146.302 70.8771 146.452 70.8771C146.602 70.8771 146.602 70.8771 146.752 70.8771C147.202 71.0276 147.502 71.3286 147.802 71.6297C148.102 72.0812 148.402 72.3823 148.402 72.5328L150.651 80.2093C150.801 80.6608 151.101 81.2629 151.551 82.0155C151.851 82.3165 152.151 82.6176 152.451 82.9186C152.751 83.2196 153.051 83.3702 153.201 83.5207C153.501 83.6712 153.651 83.6712 153.801 83.6712H159.8C161 83.0691 161.75 82.467 162.2 81.7144L164.3 73.5864C164.6 72.9843 164.75 72.5328 165.199 71.9307C165.499 71.7802 165.799 71.4792 165.949 71.1781C166.099 70.8771 166.399 70.7266 166.699 70.7266C166.849 70.7266 166.849 70.7266 166.999 70.7266C166.999 70.8771 167.149 70.8771 167.149 70.8771ZM157.251 87.4342C156.951 87.4342 156.651 87.4342 156.351 87.4342C156.051 87.5847 155.601 87.5847 155.301 87.5847C155.151 87.5847 155.001 87.5847 154.701 87.7352C154.401 87.8857 154.251 87.8857 154.101 88.1868C153.351 89.8425 153.201 91.4982 154.101 93.4549C154.851 95.4117 155.451 97.2179 155.601 99.0241C156.051 99.4757 156.351 99.7767 156.651 99.9272C156.951 99.9272 157.101 99.9272 157.251 99.7767C157.401 99.7767 157.551 99.4757 157.85 99.3252C158.3 97.6695 158.75 95.8632 159.35 94.057C159.95 92.2508 160.1 90.4445 159.95 88.6383C159.8 88.3373 159.65 88.1868 159.5 88.0362C159.2 87.7352 158.75 87.5847 158.45 87.4342C158.3 87.4342 158.15 87.4342 158 87.2836C157.551 87.5847 157.401 87.4342 157.251 87.4342Z" fill="#121212"/>
</g>
<defs>
<clipPath id="clip0">
<rect width="96.8864" height="87" fill="white" transform="translate(108.057 34)"/>
</clipPath>
</defs>
</svg>
