<svg width="314" height="156" viewBox="0 0 314 156" fill="none" xmlns="http://www.w3.org/2000/svg">
<path d="M217.912 96.5404C216.449 97.7185 214.838 98.7131 213.119 99.5008C206.893 102.119 201.118 101.288 195.892 97.1616C192.81 94.7456 190.828 91.2542 190.373 87.4374C189.831 83.4716 190.87 79.4549 193.277 76.2054C195.684 72.9559 199.278 70.718 203.328 69.9477C206.555 69.3164 209.905 69.6937 212.896 71.0254C214.588 71.7994 216.181 72.7609 217.644 73.8906L217.912 74.0872V73.5357C217.912 67.5135 217.912 61.4871 217.912 55.4564C217.912 55.0951 217.997 55 218.383 55C220.803 55 223.223 55 225.643 55C225.956 55 226.055 55.0634 226.055 55.3867C226.055 70.3978 226.055 85.4004 226.055 100.395C226.055 100.718 225.956 100.788 225.643 100.781C223.21 100.781 220.77 100.781 218.337 100.781C217.991 100.781 217.912 100.68 217.919 100.357C217.919 99.1331 217.912 97.878 217.912 96.5404ZM206.958 93.3074C207.98 93.3323 209 93.1886 209.973 92.8827C214.001 91.5325 216.251 87.038 214.956 82.9239C214.646 81.8184 214.083 80.7949 213.308 79.93C212.533 79.065 211.567 78.3809 210.481 77.9287C209.395 77.4765 208.218 77.2678 207.037 77.3183C205.856 77.3688 204.702 77.6771 203.662 78.2203C202.142 79.078 200.934 80.3714 200.205 81.9222C199.475 83.473 199.259 85.205 199.587 86.8796C200.268 90.5689 203.472 93.2441 206.958 93.3074Z" fill="white"/>
<path d="M78.469 96.5848C77.6384 97.2187 76.8144 97.7956 75.9577 98.3344C73.2209 100.129 69.9728 101.048 66.6696 100.962C63.3665 100.875 60.1742 99.7879 57.5413 97.8526C55.8385 96.6484 54.4005 95.1273 53.3113 93.3782C52.2221 91.6291 51.5035 89.687 51.1975 87.6656C50.6711 84.3374 51.2702 80.9334 52.9052 77.9625C54.5402 74.9917 57.1234 72.6136 60.2684 71.1838C65.5788 68.794 70.7323 69.1807 75.7353 72.1537C76.5795 72.6602 77.3919 73.2148 78.1682 73.8146C78.2663 73.8843 78.3775 73.9477 78.4886 74.0174C78.5636 73.8589 78.5865 73.6818 78.554 73.5103V55.6339C78.554 55 78.554 55 79.208 55H86.0095C86.6635 55 86.6635 55 86.6635 55.6339V83.3487C86.6635 88.9989 86.6635 94.6471 86.6635 100.293C86.6635 100.693 86.5654 100.807 86.1469 100.807C83.7533 100.807 81.3553 100.807 78.953 100.807C78.5867 100.807 78.4952 100.705 78.5017 100.357C78.5017 99.2599 78.5017 98.1569 78.5017 97.0539C78.538 96.8978 78.5267 96.7348 78.469 96.5848ZM68.2275 93.3074C69.274 93.3185 70.3115 93.12 71.2751 92.7242C72.3932 92.23 73.3862 91.5046 74.1844 90.5989C74.9826 89.6933 75.5667 88.6293 75.8957 87.4816C76.2248 86.334 76.2908 85.1304 76.0891 83.9554C75.8874 82.7804 75.4229 81.6624 74.7282 80.6799C74.1345 79.8377 73.3721 79.1198 72.4864 78.569C71.6008 78.0182 70.6098 77.6457 69.5726 77.4736C68.5354 77.3015 67.473 77.3333 66.4487 77.5672C65.4245 77.8011 64.4592 78.2323 63.6103 78.8352C62.1873 79.9065 61.1502 81.3865 60.6475 83.0637C60.1447 84.7408 60.202 86.5291 60.8112 88.1727C61.3422 89.6704 62.3421 90.9701 63.6716 91.8905C65.0011 92.811 66.5937 93.3063 68.2275 93.3074Z" fill="white"/>
<path d="M181.196 73.3232C181.196 72.2012 181.196 71.1869 181.196 70.1537C181.196 69.805 181.261 69.6719 181.66 69.6719C183.89 69.6719 186.127 69.6719 188.357 69.6719C188.684 69.6719 188.795 69.7353 188.795 70.0776C188.795 80.178 188.795 90.2762 188.795 100.372C188.795 100.708 188.697 100.791 188.364 100.784C186.12 100.784 183.871 100.784 181.627 100.784C181.281 100.784 181.183 100.683 181.196 100.36C181.196 99.4532 181.196 98.5467 181.196 97.6402C181.224 97.4893 181.201 97.3336 181.13 97.1964C179.324 98.6562 177.21 99.7146 174.937 100.297C172.664 100.88 170.286 100.973 167.972 100.569C164.194 99.9837 160.773 98.0617 158.372 95.1743C155.943 92.364 154.62 88.811 154.637 85.1453C154.654 81.4796 156.009 77.9382 158.463 75.1489C159.81 73.5794 161.471 72.2905 163.346 71.3601C165.221 70.4297 167.27 69.877 169.372 69.7353C173.799 69.3613 177.671 70.6544 181.196 73.3232ZM179.888 85.1521C179.892 84.611 179.835 84.071 179.718 83.5419C179.51 82.4524 179.061 81.4195 178.401 80.5142C177.742 79.6088 176.889 78.8525 175.9 78.2972C174.91 77.7419 173.809 77.4008 172.671 77.2972C171.533 77.1936 170.385 77.3301 169.306 77.6972C167.407 78.406 165.842 79.7654 164.908 81.518C163.974 83.2705 163.735 85.2944 164.238 87.206C164.476 88.2574 164.939 89.2487 165.597 90.1159C166.255 90.9831 167.093 91.7068 168.058 92.2403C169.022 92.7738 170.092 93.1052 171.197 93.2131C172.302 93.3211 173.418 93.2031 174.473 92.8668C177.632 91.8525 179.881 88.6957 179.881 85.1521H179.888Z" fill="white"/>
<path d="M253.398 73.3059V70.8082C253.398 69.6925 253.398 69.6925 254.536 69.6925C256.537 69.6925 258.538 69.6925 260.539 69.6925C260.879 69.6925 260.971 69.7813 260.971 70.1109C260.971 80.2071 260.971 90.3053 260.971 100.406C260.971 100.71 260.906 100.811 260.572 100.811C258.309 100.811 256.046 100.811 253.784 100.811C253.489 100.811 253.391 100.735 253.391 100.437C253.391 99.5182 253.391 98.5991 253.391 97.6799C253.391 97.5468 253.437 97.401 253.339 97.2742C249.735 100.304 245.491 101.223 240.874 100.691C238.835 100.464 236.863 99.8419 235.077 98.8618C233.291 97.8817 231.726 96.5636 230.475 94.9857C227.988 91.9514 226.745 88.1328 226.987 84.2642C227.228 80.3956 228.936 76.75 231.783 74.0285C237.872 68.2536 248.009 68.4437 253.398 73.3059ZM252.227 85.1601C252.24 84.5994 252.18 84.0394 252.051 83.4929C251.839 82.4112 251.39 81.3865 250.733 80.4885C250.076 79.5905 249.227 78.8403 248.243 78.2892C247.26 77.7381 246.166 77.399 245.035 77.2949C243.905 77.1908 242.764 77.3243 241.691 77.6862C239.784 78.3867 238.209 79.7431 237.267 81.4967C236.325 83.2503 236.082 85.2786 236.584 87.1949C236.822 88.2427 237.284 89.2305 237.94 90.0949C238.596 90.9594 239.431 91.6813 240.392 92.2144C241.353 92.7474 242.418 93.0799 243.519 93.1903C244.62 93.3008 245.733 93.1868 246.786 92.8558C249.971 91.8669 252.227 88.7036 252.227 85.1601Z" fill="white"/>
<path d="M96.6748 88.3279C96.9936 89.1678 97.4728 89.942 98.0874 90.61C99.3939 92.1101 101.259 93.0491 103.276 93.2225C105.294 93.3958 107.3 92.7895 108.859 91.5355C108.995 91.4162 109.172 91.3487 109.356 91.3453C112.429 91.3453 115.497 91.3453 118.564 91.3453C118.629 91.3415 118.695 91.3415 118.76 91.3453C118.261 92.4987 117.601 93.5802 116.798 94.5592C115.568 96.1931 114.014 97.5728 112.228 98.6177C110.441 99.6626 108.458 100.352 106.393 100.645C102.391 101.259 98.2975 100.376 94.9414 98.1756C91.5853 95.9747 89.2173 92.62 88.3168 88.7906C86.9695 82.9269 88.5718 77.8239 93.1432 73.6718C94.7409 72.2113 96.6405 71.0967 98.7162 70.4016C100.792 69.7066 102.996 69.447 105.183 69.6401C108.731 69.8919 112.093 71.2775 114.742 73.5798C117.39 75.8822 119.176 78.9711 119.82 82.3627C120.147 84.2066 120.147 86.091 119.82 87.9348C119.761 88.2898 119.61 88.3342 119.29 88.3342H96.6748V88.3279ZM103.973 82.0394H110.886C111.056 82.0394 111.344 82.1345 111.174 81.7605C110.586 80.4088 109.606 79.2518 108.352 78.4305C107.098 77.6092 105.625 77.159 104.112 77.1348C102.599 77.1106 101.112 77.5135 99.8305 78.2942C98.5494 79.075 97.5303 80.2001 96.8971 81.5323C96.629 82.0394 96.6355 82.0394 97.2045 82.0394H103.973Z" fill="white"/>
<path d="M130.425 72.8447C131.027 72.439 131.55 72.0587 132.106 71.7164C137.077 68.6292 143.021 69.2948 147.449 72.6355C150.795 75.1567 152.978 78.8566 153.524 82.9303C153.637 83.7157 153.687 84.5083 153.675 85.3011C153.675 90.3091 153.675 95.317 153.675 100.325C153.675 100.718 153.564 100.807 153.171 100.807C150.608 100.807 148.044 100.807 145.48 100.807C145.114 100.807 145.003 100.731 145.003 100.35C145.003 95.3297 145.036 90.3091 145.003 85.2821C145.031 84.0565 144.77 82.8407 144.24 81.7278C143.709 80.6148 142.924 79.6341 141.942 78.8606C141.246 78.3111 140.445 77.9016 139.584 77.6558C138.723 77.41 137.82 77.333 136.928 77.4292C136.036 77.5254 135.173 77.7929 134.389 78.2161C133.605 78.6392 132.915 79.2096 132.361 79.8939C131.069 81.4473 130.376 83.3883 130.399 85.3836C130.399 90.3661 130.399 95.3487 130.399 100.325C130.399 100.724 130.282 100.807 129.896 100.807C127.319 100.807 124.736 100.807 122.159 100.807C121.799 100.807 121.701 100.712 121.701 100.363C121.701 90.2922 121.701 80.2193 121.701 70.1442C121.701 69.7639 121.819 69.6815 122.192 69.6878C124.768 69.6878 127.347 69.6878 129.928 69.6878C130.314 69.6878 130.412 69.7956 130.399 70.1633C130.406 71.0317 130.425 71.9129 130.425 72.8447Z" fill="white"/>
</svg>
