<svg width="314" height="156" viewBox="0 0 314 156" fill="none" xmlns="http://www.w3.org/2000/svg">
<path d="M151.361 95.376C151.003 94.7826 150.827 93.7243 150.827 92.1945V77.1208C150.827 72.6308 149.452 69.1542 146.701 66.6911C143.951 64.2281 139.993 62.9912 134.827 62.9805C129.708 62.9805 125.738 64.2377 122.915 66.7521C120.093 69.2665 118.683 72.7944 118.685 77.3357H126.649C126.649 75.1677 127.348 73.4786 128.746 72.2684C130.144 71.0582 132.124 70.4542 134.685 70.4564C137.339 70.4564 139.318 71.024 140.621 72.1594C141.924 73.2947 142.553 74.9464 142.508 77.1144V79.0387L133.76 80.0746C128.358 80.716 124.269 82.0727 121.494 84.1445C118.719 86.2163 117.332 88.9766 117.334 92.4254C117.322 94.3972 117.812 96.3372 118.756 98.0475C119.78 99.8397 121.279 101.287 123.073 102.217C124.991 103.286 127.348 103.82 130.146 103.82C133.417 103.82 136.143 103.105 138.324 101.675C140.503 100.246 142.176 98.1166 143.088 95.6101C143.562 100.491 145.933 102.932 150.198 102.932C151.569 102.925 152.933 102.725 154.253 102.339L154.324 96.2002L153.47 96.2772C152.415 96.2643 151.715 95.9661 151.361 95.376ZM139.128 93.859C138.229 94.9207 137.117 95.7653 135.87 96.3337C134.624 96.902 133.274 97.1805 131.913 97.1495C129.827 97.1495 128.262 96.6567 127.22 95.671C126.725 95.2341 126.329 94.6898 126.058 94.0765C125.788 93.4631 125.65 92.7955 125.654 92.1207C125.654 90.4466 126.543 89.1519 128.321 88.2368C130.099 87.3217 132.861 86.6461 136.606 86.2099L142.289 85.6134C142.104 88.9167 141.05 91.6653 139.128 93.859Z" fill="#F7F7F7"/>
<path d="M165.353 71.4872V64.1652H157.246V102.625H165.353V81.2498C165.353 77.9464 166.668 75.5678 169.3 74.1138C171.931 72.6599 175.497 71.933 179.999 71.933V63.7227C172.652 63.7227 167.77 66.3108 165.353 71.4872Z" fill="#F7F7F7"/>
<path d="M207.767 81.6557C205.282 80.9242 202.752 80.3681 200.194 79.9912C197.064 79.4995 194.753 78.9446 193.263 78.3267C191.772 77.7088 191.025 76.5628 191.021 74.8886C191.003 74.1013 191.172 73.3214 191.513 72.6182C191.854 71.915 192.356 71.3102 192.976 70.8572C194.281 69.8481 196.095 69.3424 198.418 69.3403C200.978 69.3403 203.003 69.9699 204.496 71.2293C205.988 72.4886 206.783 74.2258 206.879 76.4409H214.915C214.627 72.2994 213.063 69.0206 210.222 66.6046C207.381 64.1885 203.659 62.9805 199.057 62.9805C194.03 62.9805 190.049 64.103 187.111 66.348C184.174 68.593 182.704 71.5628 182.702 75.2575C182.702 78.1182 183.389 80.313 184.765 81.8418C186.095 83.3409 187.79 84.4389 189.67 85.02C192.122 85.7364 194.617 86.2807 197.139 86.6493C200.36 87.0919 202.754 87.6585 204.32 88.3491C205.886 89.0397 206.669 90.2723 206.667 92.0469C206.667 93.6248 205.979 94.9195 204.604 95.9308C203.229 96.9421 201.356 97.4435 198.986 97.4349C196.235 97.4349 194.031 96.832 192.375 95.6261C191.575 95.0656 190.917 94.3118 190.459 93.4293C190 92.5468 189.754 91.5619 189.741 90.5588H181.635C181.731 94.6511 183.308 97.8807 186.365 100.248C189.422 102.615 193.533 103.798 198.699 103.798C203.723 103.798 207.692 102.729 210.607 100.591C213.522 98.4527 214.981 95.531 214.983 91.8256C214.983 88.8665 214.272 86.5862 212.849 84.9848C211.478 83.4146 209.721 82.2635 207.767 81.6557Z" fill="#F7F7F7"/>
<path d="M243 71.9304V64.1627H232.762V53.8164H224.372V64.1627H216.479V71.9304H224.372V92.267C224.329 95.0701 224.672 97.252 225.402 98.8128C226.07 100.296 227.27 101.447 228.745 102.02C230.237 102.614 232.239 102.91 234.751 102.908C236.41 102.908 238.591 102.785 241.295 102.54V94.9289C239.825 95.0786 238.545 95.1534 237.456 95.1534C235.986 95.1534 234.919 94.9557 234.255 94.5601C233.93 94.3667 233.651 94.1006 233.438 93.7811C233.225 93.4616 233.082 93.0966 233.022 92.7128C232.817 91.3176 232.734 89.9061 232.772 88.4954V71.9304H243Z" fill="#F7F7F7"/>
<path d="M105.23 60.2521C107.354 60.2521 107.354 59.1456 108.523 59.1456C109.479 59.1456 110.33 60.2521 110.33 62.4618C110.33 65.4445 108.418 70.0852 102.785 73.1801V75.5021C110.117 72.6157 115.119 65.0019 115.119 59.1456C115.119 52.6255 110.866 48.0938 106.513 48.0938C102.899 48.0938 100.037 50.7461 100.037 54.5081C100.022 57.7088 102.041 60.2521 105.23 60.2521Z" fill="#F7F7F7"/>
<path d="M98.131 79.3258L93.7185 73.8672L88.3902 78.5849L80 86.0159V95.105L92.3741 84.3353V84.3546L106.737 102.623H116.974L107.554 90.9742L98.131 79.3258Z" fill="#F7F7F7"/>
<path d="M88.3902 44.1953H80V76.5972L88.3902 69.1662V44.1953Z" fill="#F7F7F7"/>
</svg>
