<svg width="314" height="156" viewBox="0 0 314 156" fill="none" xmlns="http://www.w3.org/2000/svg">
<g clip-path="url(#clip0)">
<path d="M60.1366 80.1649V106H52V49H60.1366V72.5449H66.2555V49H74.3812V106H66.2555V80.1649H60.1366Z" fill="white"/>
<path d="M76.3223 49H96.2275V56.4916H84.8406V72.5449H94.2098V80.518H84.8406V98.5513H96.2275V106.043H76.3223V49Z" fill="white"/>
<path d="M112.109 76.7401C116.057 77.5749 120.627 80.0899 120.627 86.2437V98.5513C120.627 105.24 121.555 106.043 121.631 106.043H112.109V85.0986C112.109 81.7595 110.484 80.8177 108.073 80.8177H105.99V106H97.4609V49H108.073C115.708 49 120.006 52.2107 120.627 61.6928L120.78 64.0473L120.627 66.3269C120.235 73.0907 115.981 75.1455 112.109 76.1301V76.7401ZM105.99 55.614V72.5449H108.172C110.582 72.5449 112.207 71.5496 112.131 68.2105L111.989 64.0473L112.065 59.9484C112.142 56.5986 110.517 55.614 108.106 55.614H105.99Z" fill="white"/>
<path d="M122.633 49H142.527V56.4916H131.162V72.5449H140.531V80.518H131.162V98.5513H142.527V106.043H122.633V49Z" fill="white"/>
<path d="M152.486 97.7914L151.178 106H143.041L151.559 49H160.699L169.218 106H161.07L159.751 97.7914H152.486ZM153.577 91.1025H158.682L156.435 77.1254H155.824L153.577 91.1025Z" fill="white"/>
<path d="M169.795 49H189.7V56.4916H178.281V73.7007H188.337V81.6846H178.27V98.5513C178.176 100.696 178.278 102.845 178.575 104.973C178.628 105.342 178.734 105.703 178.891 106.043H169.795V49Z" fill="white"/>
<path d="M206.88 106H198.362V56.4916H190.389V49H214.842V56.4916H206.88V106Z" fill="white"/>
<path d="M215.605 49H235.511V56.4916H224.135V72.5449H233.504V80.518H224.135V98.5513H235.522V106.043H215.605V49Z" fill="white"/>
<path d="M251.479 76.7401C255.427 77.5749 259.997 80.0899 259.997 86.2437V98.5513C259.997 105.24 260.924 106.043 261.001 106.043H251.479V85.0986C251.479 81.7595 249.854 80.8177 247.454 80.8177H245.36V106H236.842V49H247.454C255.089 49 259.376 52.2107 259.997 61.6928L260.15 64.0473L259.997 66.3269C259.616 73.0907 255.351 75.1455 251.479 76.1301V76.7401ZM245.36 55.614V72.5449H247.542C249.941 72.5449 251.566 71.5496 251.49 68.2105L251.414 64.0259L251.49 59.927C251.566 56.5772 249.941 55.5926 247.542 55.5926L245.36 55.614Z" fill="white"/>
</g>
<defs>
<clipPath id="clip0">
<rect width="209" height="57" fill="white" transform="translate(52 49)"/>
</clipPath>
</defs>
</svg>
