<svg width="314" height="156" viewBox="0 0 314 156" fill="none" xmlns="http://www.w3.org/2000/svg">
<path d="M257 77.0571H248.328L249.721 66.5295H255.693L256.131 63.1796H250.161L251.638 52H247.907L246.408 63.1796H241.339L240.876 66.5295H245.959L244.546 77.0571H233.767C233.767 76.7536 233.793 76.4613 233.793 76.2C233.793 72.1905 232.549 68.8893 230.061 66.2963C227.574 63.7033 224.436 62.4086 220.648 62.4124C217.627 62.4038 214.659 63.2063 212.048 64.7374C209.436 66.2684 207.276 68.473 205.789 71.1245C204.724 72.9543 203.999 74.9648 203.649 77.0571H197.518C197.518 76.7536 197.543 76.4613 197.543 76.2C197.543 72.1905 196.3 68.8893 193.812 66.2963C191.324 63.7033 188.183 62.4086 184.387 62.4124C181.367 62.4038 178.399 63.2063 175.787 64.7374C173.176 66.2684 171.016 68.473 169.529 71.1245C168.463 72.9541 167.737 74.9646 167.386 77.0571H161.985C161.985 76.8548 161.999 76.6524 161.999 76.4473C161.999 72.3254 160.708 68.953 158.126 66.33C155.543 63.707 152.233 62.4011 148.194 62.4124C143.795 62.4124 139.883 64.166 136.459 67.6734L137.05 63.1768H133.185L131.324 77.0571H123.181C123.181 76.9363 123.181 76.8154 123.181 76.6946C123.223 74.1237 122.614 71.5845 121.411 69.3174C120.271 67.1924 118.563 65.4321 116.482 64.2363C114.368 63.0169 111.97 62.3864 109.534 62.4096C106.536 62.3919 103.588 63.1847 100.996 64.7056C98.3983 66.207 96.2563 68.3954 94.8013 71.0345C93.7515 72.8966 93.0523 74.9385 92.7392 77.0571H85.6081C85.7871 75.6782 85.894 74.2908 85.9285 72.9006C85.9285 69.6968 84.9885 67.1478 83.1084 65.2536C81.2283 63.3595 78.7547 62.4124 75.6875 62.4124C71.6877 62.4124 68.182 64.2185 65.1705 67.8307L65.7808 63.1824H62.1247L60.266 77.0571H57V80.3256H59.8257L58.1175 93.0762H61.8544L63.5264 80.3368H81.4531L79.7449 93.0762H83.4818L85.1901 80.3368H92.5552C92.65 84.1889 93.9309 87.3739 96.3981 89.892C98.9674 92.515 102.241 93.8265 106.218 93.8265C109.24 93.8769 112.221 93.1186 114.857 91.6288C117.409 90.1548 119.51 88.0025 120.932 85.4067C121.826 83.8248 122.468 82.1112 122.835 80.3284H130.894L127.712 104H131.664L133.862 87.3571C135.163 89.5716 136.748 91.2054 138.619 92.2583C140.617 93.3447 142.86 93.889 145.129 93.8378C149.678 93.8378 153.63 92.13 156.983 88.7145C159.295 86.4286 160.9 83.5156 161.604 80.3284H167.199C167.323 83.6853 168.551 86.9053 170.688 89.4817C173.022 92.3839 176.512 93.8359 181.16 93.8378C183.753 93.8589 186.317 93.2903 188.662 92.174C190.853 91.1597 192.775 89.6395 194.275 87.7365L191.441 85.4011C190.284 86.953 188.77 88.1974 187.029 89.0264C185.218 89.8958 183.234 90.3378 181.227 90.3192C178.086 90.3192 175.571 89.3028 173.684 87.27C172.056 85.52 171.151 83.2052 170.967 80.3256H203.437C203.561 83.6825 204.789 86.9024 206.926 89.4789C209.26 92.3811 212.75 93.8331 217.398 93.8349C219.991 93.8561 222.555 93.2874 224.9 92.1712C227.095 91.1595 229.023 89.6402 230.527 87.7365L227.692 85.4011C226.536 86.953 225.022 88.1974 223.281 89.0264C221.47 89.8958 219.485 90.3378 217.479 90.3192C214.34 90.3192 211.825 89.3028 209.936 87.27C208.308 85.52 207.403 83.2052 207.219 80.3256H244.109L242.401 93.0762H246.213L247.885 80.3368H256.989L257 77.0571ZM212.644 68.6261C214.909 66.9406 217.661 66.0519 220.475 66.0967C223.191 66.0967 225.452 66.968 227.258 68.7104C229.064 70.4528 230.018 72.7301 230.122 75.5423H207.829C208.78 72.6027 210.385 70.2973 212.644 68.6261ZM176.392 68.6261C178.657 66.9406 181.409 66.0519 184.223 66.0967C186.945 66.0967 189.206 66.9689 191.006 68.7132C192.806 70.4575 193.759 72.7348 193.865 75.5452H171.585C172.526 72.6036 174.128 70.2973 176.392 68.6261ZM97.9809 72.7545C99.0811 70.6931 100.743 68.9924 102.771 67.8532C104.805 66.6727 107.113 66.0561 109.459 66.0658C111.254 66.0506 113.021 66.5099 114.584 67.3979C116.124 68.2648 117.382 69.563 118.207 71.1357C119.084 72.8338 119.526 74.7266 119.491 76.6412C119.491 76.7817 119.491 76.9222 119.477 77.0599H96.5151C96.764 75.5528 97.2593 74.0979 97.9809 72.7545ZM65.7335 71.6837C66.6635 69.9307 68.0474 68.4648 69.7378 67.4419C71.4283 66.419 73.3622 65.8774 75.3336 65.8747C77.3771 65.8747 79.0278 66.5174 80.2855 67.8026C81.5432 69.0879 82.1721 70.7741 82.1721 72.8613C82.1449 74.2642 82.0444 75.6648 81.8711 77.0571H64.0503C64.4999 74.7433 65.0609 72.9521 65.7335 71.6837ZM117.764 83.5912C116.715 85.649 115.113 87.3672 113.14 88.5487C111.178 89.6998 108.943 90.2932 106.673 90.2658C103.618 90.2658 101.127 89.2812 99.1987 87.3121C97.4152 85.491 96.4585 83.1631 96.3284 80.3284H119.031C118.74 81.4633 118.314 82.5588 117.764 83.5912ZM136.298 72.687C137.394 70.5913 139.058 68.8527 141.096 67.6734C143.133 66.5044 145.441 65.9022 147.784 65.9281C150.902 65.9281 153.427 66.8986 155.359 68.8396C157.291 70.7807 158.251 73.3325 158.24 76.4951C158.24 76.6833 158.24 76.8688 158.24 77.0571H134.768C135.04 75.5266 135.557 74.0507 136.298 72.687ZM154.35 86.2835C153.148 87.5627 151.697 88.577 150.087 89.2624C148.478 89.9478 146.745 90.2894 144.998 90.2658C141.916 90.2658 139.4 89.2953 137.451 87.3543C135.616 85.5257 134.645 83.1837 134.539 80.3284H157.761C157.166 82.5829 155.989 84.6379 154.35 86.2835Z" fill="white"/>
</svg>
